inDegrees=yes
name=coleta2_motion.mot
DataType=double
version=3
OpenSimVersion=4.4-2022-07-23-0e9fedc
endheader
time	pelvis_tilt	pelvis_tx	pelvis_ty	hip_flexion_r	knee_angle_r	ankle_angle_r	hip_flexion_l	knee_angle_l	ankle_angle_l	lumbar_extension	gearToGround_coord_0	rightPedalToGear_coord_0	leftPedalToGear_coord_0
13.38593578338623	46.76033835319214	-0.7	0.0500000000000003	103.9603383531921	-91.19272232636496	-1.039076492892845e-12	80.38799999999991	-84.66000000000004	5.05043721578303e-13	2.071017320375504e-12	0	-114.0000000000003	-139.067795130823
13.39196109771729	46.8068432994382	-0.7	0.0500000000000003	104.0068432994381	-91.28658651903838	-1.039076492892845e-12	80.38799999999991	-84.66000000000004	5.05043721578303e-13	2.071017320375504e-12	0	-114.0000000000003	-139.067795130823
13.39696311950684	46.81027281878899	-0.7	0.0500000000000003	104.0102728187889	-90.09579764916504	-1.039076492892845e-12	80.38799999999991	-84.66000000000004	5.05043721578303e-13	2.071017320375504e-12	0	-114.0000000000003	-139.067795130823
13.40494990348816	46.81032845439206	-0.7	0.0500000000000003	104.010328454392	-88.88711298165397	-1.039076492892845e-12	80.38799999999991	-84.66000000000004	5.05043721578303e-13	2.071017320375504e-12	0	-114.0000000000003	-139.067795130823
13.41195797920227	46.81033745827094	-0.7	0.0500000000000003	104.0103374582709	-87.75376506704838	-1.039076492892845e-12	80.38799999999991	-84.66000000000004	5.05043721578303e-13	2.071017320375504e-12	0	-114.0000000000003	-139.067795130823
13.42194104194641	46.81034047561013	-0.7	0.0500000000000003	104.01034047561	-86.6447017026688	-1.039076492892845e-12	80.38799999999991	-84.66000000000004	5.05043721578303e-13	2.071017320375504e-12	0	-114.0000000000003	-139.067795130823
13.42593789100647	46.71243127607505	-0.7	0.0500000000000003	103.912431276075	-86.44860967936818	-1.039076492892845e-12	80.38799999999991	-84.66000000000004	5.05043721578303e-13	2.071017320375504e-12	0	-114.0000000000003	-139.067795130823
13.433926820755	46.71246120594779	-0.7	0.0500000000000003	103.9124612059477	-85.33548978434105	-1.039076492892845e-12	80.38799999999991	-84.66000000000004	5.05043721578303e-13	2.071017320375504e-12	0	-114.0000000000003	-139.067795130823
13.43997502326965	46.43634902831614	-0.7	0.0500000000000003	103.6363490283161	-84.78354525103438	-1.039076492892845e-12	80.38799999999991	-84.66000000000004	5.05043721578303e-13	2.071017320375504e-12	0	-114.0000000000003	-139.067795130823
13.44394302368164	46.43649725902275	-0.7	0.0500000000000003	103.6364972590227	-82.30548485728637	-1.039076492892845e-12	80.38799999999991	-84.66000000000004	5.05043721578303e-13	2.071017320375504e-12	0	-114.0000000000003	-139.067795130823
13.45194387435913	45.87410595818154	-0.7	0.0500000000000003	103.0741059581815	-81.18116186339057	-1.039076492892845e-12	80.38799999999991	-84.66000000000004	5.05043721578303e-13	2.071017320375504e-12	0	-114.0000000000003	-139.067795130823
13.45594596862793	45.87485157128583	-0.7	0.0500000000000003	103.0748515712858	-80.29629140825617	-1.039076492892845e-12	80.38799999999991	-84.66000000000004	5.05043721578303e-13	2.071017320375504e-12	0	-114.0000000000003	-139.067795130823
13.45995688438416	45.51544186032815	-0.7	0.0500000000000003	102.7154418603281	-79.57807249248874	-1.039076492892845e-12	80.38799999999991	-84.66000000000004	5.05043721578303e-13	2.071017320375504e-12	0	-114.0000000000003	-139.067795130823
13.4659378528595	45.51589452295479	-0.7	0.0500000000000003	102.7158945229549	-78.80886057456172	-1.039076492892845e-12	80.38799999999991	-84.66000000000004	5.05043721578303e-13	2.071017320375504e-12	0	-114.0000000000003	-139.067795130823
13.47093892097473	45.15361571175613	-0.7	0.0500000000000003	102.3536157117562	-78.08499816504026	-1.039076492892845e-12	80.38799999999991	-84.66000000000004	5.05043721578303e-13	2.071017320375504e-12	0	-114.0000000000003	-139.067795130823
13.47793793678284	45.15408766355628	-0.7	0.0500000000000003	102.3540876635563	-77.46231433288219	-1.039076492892845e-12	80.38799999999991	-84.66000000000004	5.05043721578303e-13	2.071017320375504e-12	0	-114.0000000000003	-139.067795130823
13.48295402526855	44.73066884130296	-0.7	0.0500000000000003	101.930668841303	-76.61643756849332	-1.039076492892845e-12	80.38799999999991	-84.66000000000004	5.05043721578303e-13	2.071017320375504e-12	0	-114.0000000000003	-139.067795130823
13.4909360408783	43.60733814365574	-0.7	0.0500000000000003	100.8073381436558	-74.371975590508	-1.039076492892845e-12	80.38799999999991	-84.66000000000004	5.05043721578303e-13	2.071017320375504e-12	0	-114.0000000000003	-139.067795130823
13.49994087219238	43.6089446491024	-0.7	0.0500000000000003	100.8089446491025	-73.79835962062786	-1.039076492892845e-12	80.38799999999991	-84.66000000000004	5.05043721578303e-13	2.071017320375504e-12	0	-114.0000000000003	-139.067795130823
13.5039370059967	43.05306601419502	-0.7	0.0500000000000003	100.2530660141951	-72.68790092354045	-1.039076492892845e-12	80.38799999999991	-84.66000000000004	5.05043721578303e-13	2.071017320375504e-12	0	-114.0000000000003	-139.067795130823
13.50993585586548	43.05383967018651	-0.7	0.0500000000000003	100.2538396701865	-72.21040882595948	-1.039076492892845e-12	80.38799999999991	-84.66000000000004	5.05043721578303e-13	2.071017320375504e-12	0	-114.0000000000003	-139.067795130823
13.52194690704346	43.05386311911469	-0.7	0.0500000000000003	100.2538631191147	-71.83344490171243	-1.039076492892845e-12	80.38799999999991	-84.66000000000004	5.05043721578303e-13	2.071017320375504e-12	0	-114.0000000000003	-139.067795130823
13.5379331111908	43.05386537366648	-0.7	0.0500000000000003	100.2538653736665	-71.47097353634418	-1.039076492892845e-12	80.38799999999991	-84.66000000000004	5.05043721578303e-13	2.071017320375504e-12	0	-114.0000000000003	-139.067795130823
13.56496477127075	43.05388976205898	-0.7	0.0500000000000003	100.253889762059	-71.34403967155191	-1.039076492892845e-12	80.38799999999991	-84.66000000000004	5.05043721578303e-13	2.071017320375504e-12	0	-114.0000000000003	-139.067795130823
13.57293701171875	41.60792067982233	-0.7	0.0500000000000003	98.80792067982233	-68.45655219965086	-1.039076492892845e-12	80.38799999999991	-84.66000000000004	5.05043721578303e-13	2.071017320375504e-12	0	-114.0000000000003	-139.067795130823
13.57696318626404	41.61917256167812	-0.7	0.0500000000000003	98.81917256167813	-68.44638543360495	-1.039076492892845e-12	80.38799999999991	-84.66000000000004	5.05043721578303e-13	2.071017320375504e-12	0	-114.0000000000003	-139.067795130823
13.58295083045959	40.48246237499776	-0.7	0.0500000000000003	97.68246237499777	-66.16862123233403	-1.039076492892845e-12	80.38799999999991	-84.66000000000004	5.05043721578303e-13	2.071017320375504e-12	0	-114.0000000000003	-139.067795130823
13.58794093132019	40.48412663008386	-0.7	0.0500000000000003	97.68412663008381	-66.21933536180269	-1.039076492892845e-12	80.38799999999991	-84.66000000000004	5.05043721578303e-13	2.071017320375504e-12	0	-114.0000000000003	-139.067795130823
13.59394407272339	40.03859158259831	-0.7	0.0500000000000003	97.23859158259832	-65.33063779442973	-1.039076492892845e-12	80.38799999999991	-84.66000000000004	5.05043721578303e-13	2.071017320375504e-12	0	-114.0000000000003	-139.067795130823
13.60196709632874	40.03860826480867	-0.7	0.0500000000000003	97.23860826480865	-65.49774258781707	-1.039076492892845e-12	80.38799999999991	-84.66000000000004	5.05043721578303e-13	2.071017320375504e-12	0	-114.0000000000003	-139.067795130823
13.60894203186035	39.69775903588685	-0.7	0.0500000000000003	96.89775903588679	-64.81718868867272	-1.039076492892845e-12	80.38799999999991	-84.66000000000004	5.05043721578303e-13	2.071017320375504e-12	0	-114.0000000000003	-139.067795130823
13.61392593383789	39.13114842109177	-0.7	0.0500000000000003	96.33114842109171	-63.68469023694625	-1.039076492892845e-12	80.38799999999991	-84.66000000000004	5.05043721578303e-13	2.071017320375504e-12	0	-114.0000000000003	-139.067795130823
13.61994194984436	39.13208864216146	-0.7	0.0500000000000003	96.33208864216142	-64.6461437049247	-1.039076492892845e-12	80.38799999999991	-84.66000000000004	5.05043721578303e-13	2.071017320375504e-12	0	-114.0000000000003	-139.067795130823
13.62494897842407	38.40303217732396	-0.7	0.0500000000000003	95.60303217732391	-63.19069093619484	-1.039076492892845e-12	80.38799999999991	-84.66000000000004	5.05043721578303e-13	2.071017320375504e-12	0	-114.0000000000003	-139.067795130823
13.64195394515991	38.40415109405701	-0.7	0.0500000000000003	95.60415109405696	-63.64022422505291	-1.039076492892845e-12	80.38799999999991	-84.66000000000004	5.05043721578303e-13	2.071017320375504e-12	0	-114.0000000000003	-139.067795130823
13.65594696998596	38.40421353105962	-0.7	0.0500000000000003	95.60421353105957	-64.57053955851941	-1.039076492892845e-12	80.38799999999991	-84.66000000000004	5.05043721578303e-13	2.071017320375504e-12	0	-114.0000000000003	-139.067795130823
13.66394400596619	38.40421252084897	-0.7	0.0500000000000003	95.60421252084892	-65.47820325606396	-1.039076492892845e-12	80.38799999999991	-84.66000000000004	5.05043721578303e-13	2.071017320375504e-12	0	-114.0000000000003	-139.067795130823
